<svg width="36" height="36" viewBox="0 0 36 36" fill="none" xmlns="http://www.w3.org/2000/svg">
<path d="M0 0H31C33.7614 0 36 2.23858 36 5V31C36 33.7614 33.7614 36 31 36H0V0Z" fill="#F6C54C"/>
<path d="M21.8645 20.5198H21.0515L20.7633 20.2573C21.8067 19.1143 22.3802 17.655 22.3791 16.1458C22.3791 14.8963 21.9867 13.6748 21.2517 12.6358C20.5166 11.5968 19.4719 10.7871 18.2495 10.3089C17.0272 9.83068 15.6821 9.70556 14.3845 9.94934C13.0868 10.1931 11.8949 10.7948 10.9593 11.6784C10.0238 12.562 9.38666 13.6877 9.12854 14.9133C8.87042 16.1388 9.0029 17.4091 9.50921 18.5636C10.0155 19.718 10.8729 20.7048 11.973 21.399C13.0731 22.0932 14.3665 22.4637 15.6895 22.4637C17.3465 22.4637 18.8696 21.8903 20.0429 20.9377L20.3208 21.2099V21.9777L25.4666 26.8279L27 25.3797L21.8645 20.5198ZM15.6895 20.5198C13.1269 20.5198 11.0583 18.5661 11.0583 16.1458C11.0583 13.7256 13.1269 11.7719 15.6895 11.7719C18.2521 11.7719 20.3208 13.7256 20.3208 16.1458C20.3208 18.5661 18.2521 20.5198 15.6895 20.5198Z" fill="white" fill-opacity="0.85"/>
</svg>
